<?xml version="1.0" encoding="UTF-8"?>
<!DOCTYPE svg PUBLIC "-//W3C//DTD SVG 1.1//EN" "http://www.w3.org/Graphics/SVG/1.1/DTD/svg11.dtd">
<svg xmlns="http://www.w3.org/2000/svg" version="1.1" width="594px" height="420px" style="shape-rendering:geometricPrecision; text-rendering:geometricPrecision; image-rendering:optimizeQuality; fill-rule:evenodd; clip-rule:evenodd" xmlns:xlink="http://www.w3.org/1999/xlink">
<g><path style="opacity:0.99" fill="#c3963e" d="M 339.5,124.5 C 340.931,120.346 340.598,116.346 338.5,112.5C 330.632,112.7 326.965,116.7 327.5,124.5C 325.462,116.295 328.795,111.295 337.5,109.5C 339.353,110.189 340.519,111.522 341,113.5C 341.667,116.833 341.667,120.167 341,123.5C 340.617,124.056 340.117,124.389 339.5,124.5 Z"/></g>
<g><path style="opacity:1" fill="#c58e28" d="M 286.5,122.5 C 286.66,120.801 286.494,119.134 286,117.5C 285.107,118.711 284.274,118.711 283.5,117.5C 284.248,115.668 285.248,114.001 286.5,112.5C 287.086,112.709 287.586,113.043 288,113.5C 288.667,111.5 288.667,109.5 288,107.5C 286.902,108.967 285.402,109.801 283.5,110C 284.833,110.667 284.833,111.333 283.5,112C 281.512,112.18 279.512,112.014 277.5,111.5C 277.43,114.659 275.763,116.326 272.5,116.5C 276.207,110.135 281.541,105.469 288.5,102.5C 289.086,102.709 289.586,103.043 290,103.5C 290.667,108.167 290.667,112.833 290,117.5C 289.777,119.881 288.61,121.547 286.5,122.5 Z"/></g>
<g><path style="opacity:0.212" fill="#ebd2a6" d="M 263.5,112.5 C 265.262,113.262 266.262,114.596 266.5,116.5C 264.738,115.738 263.738,114.404 263.5,112.5 Z"/></g>
<g><path style="opacity:1" fill="#c6870c" d="M 309.5,105.5 C 316.517,108.691 321.351,114.025 324,121.5C 325.502,128.493 325.669,135.493 324.5,142.5C 323.5,142.5 322.5,142.5 321.5,142.5C 321.124,138.034 320.124,133.701 318.5,129.5C 316.955,128.548 315.288,128.215 313.5,128.5C 310.554,125.038 307.721,121.371 305,117.5C 304.501,113.179 304.334,108.846 304.5,104.5C 306.216,104.629 307.883,104.962 309.5,105.5 Z"/></g>
<g><path style="opacity:1" fill="#c6870d" d="M 339.5,124.5 C 339.631,125.376 339.298,126.043 338.5,126.5C 336.045,127.315 333.711,128.315 331.5,129.5C 329.42,128.421 328.087,126.755 327.5,124.5C 326.965,116.7 330.632,112.7 338.5,112.5C 340.598,116.346 340.931,120.346 339.5,124.5 Z"/></g>
<g><path style="opacity:1" fill="#c88509" d="M 262.5,112.5 C 262.833,112.5 263.167,112.5 263.5,112.5C 263.738,114.404 264.738,115.738 266.5,116.5C 266.665,119.85 266.498,123.183 266,126.5C 264.295,129.261 262.129,129.927 259.5,128.5C 259.838,124.849 258.172,123.183 254.5,123.5C 254.5,119.833 254.5,116.167 254.5,112.5C 257.376,112.792 260.043,112.792 262.5,112.5 Z"/></g>
<g><path style="opacity:0.973" fill="#c69b45" d="M 309.5,105.5 C 307.883,104.962 306.216,104.629 304.5,104.5C 304.334,108.846 304.501,113.179 305,117.5C 307.721,121.371 310.554,125.038 313.5,128.5C 303.277,122.281 300.444,113.614 305,102.5C 306.878,103.053 308.378,104.053 309.5,105.5 Z"/></g>
<g><path style="opacity:0.914" fill="#c59733" d="M 262.5,112.5 C 260.043,112.792 257.376,112.792 254.5,112.5C 254.5,116.167 254.5,119.833 254.5,123.5C 258.172,123.183 259.838,124.849 259.5,128.5C 250.595,124.152 249.262,117.986 255.5,110C 258.085,110.075 260.418,110.908 262.5,112.5 Z"/></g>
<g><path style="opacity:1" fill="#cd9a3c" d="M 286.5,123.5 C 283.883,126.364 280.883,128.697 277.5,130.5C 277.67,129.178 277.337,128.011 276.5,127C 277.793,126.51 279.127,126.343 280.5,126.5C 280.5,125.5 280.5,124.5 280.5,123.5C 282.5,123.5 284.5,123.5 286.5,123.5 Z"/></g>
<g><path style="opacity:0.999" fill="#c68813" d="M 286.5,122.5 C 286.5,122.833 286.5,123.167 286.5,123.5C 284.5,123.5 282.5,123.5 280.5,123.5C 280.5,124.5 280.5,125.5 280.5,126.5C 279.127,126.343 277.793,126.51 276.5,127C 277.337,128.011 277.67,129.178 277.5,130.5C 277.672,131.492 277.338,132.158 276.5,132.5C 275.265,132.721 274.265,133.388 273.5,134.5C 272.526,136.743 272.192,139.076 272.5,141.5C 269.692,141.693 267.025,142.36 264.5,143.5C 258.332,140.997 251.998,140.33 245.5,141.5C 237.023,141.519 231.023,137.686 227.5,130C 229.001,127.41 231.335,126.077 234.5,126C 248.372,124.269 259.372,129.102 267.5,140.5C 268.33,134.862 268.83,129.196 269,123.5C 270.213,121.075 271.379,118.741 272.5,116.5C 275.763,116.326 277.43,114.659 277.5,111.5C 279.512,112.014 281.512,112.18 283.5,112C 284.833,111.333 284.833,110.667 283.5,110C 285.402,109.801 286.902,108.967 288,107.5C 288.667,109.5 288.667,111.5 288,113.5C 287.586,113.043 287.086,112.709 286.5,112.5C 285.248,114.001 284.248,115.668 283.5,117.5C 284.274,118.711 285.107,118.711 286,117.5C 286.494,119.134 286.66,120.801 286.5,122.5 Z"/></g>
<g><path style="opacity:1" fill="#c78503" d="M 359.5,137.5 C 349.26,139.098 338.927,140.265 328.5,141C 331.063,141.763 331.063,142.263 328.5,142.5C 327.287,142.253 326.62,141.586 326.5,140.5C 327.833,138.833 329.167,137.167 330.5,135.5C 334.209,133.176 338.209,131.176 342.5,129.5C 345.631,130.69 348.797,131.69 352,132.5C 352.692,131.975 353.192,131.308 353.5,130.5C 352.167,129.833 350.833,129.167 349.5,128.5C 350,127.119 351,126.453 352.5,126.5C 354.795,128.48 357.461,129.647 360.5,130C 359.137,132.129 359.471,132.629 361.5,131.5C 362.386,132.325 362.719,133.325 362.5,134.5C 361.178,134.67 360.011,134.337 359,133.5C 358.805,134.819 358.972,136.153 359.5,137.5 Z"/></g>
<g><path style="opacity:1" fill="#c78f28" d="M 359.5,137.5 C 358.972,136.153 358.805,134.819 359,133.5C 360.011,134.337 361.178,134.67 362.5,134.5C 362.719,133.325 362.386,132.325 361.5,131.5C 359.471,132.629 359.137,132.129 360.5,130C 357.461,129.647 354.795,128.48 352.5,126.5C 351,126.453 350,127.119 349.5,128.5C 350.833,129.167 352.167,129.833 353.5,130.5C 353.192,131.308 352.692,131.975 352,132.5C 348.797,131.69 345.631,130.69 342.5,129.5C 338.209,131.176 334.209,133.176 330.5,135.5C 340.646,125.304 352.479,122.971 366,128.5C 366.016,132.996 363.849,135.996 359.5,137.5 Z"/></g>
<g><path style="opacity:1" fill="#c78609" d="M 309.5,139.5 C 308.871,141.465 308.204,143.465 307.5,145.5C 307.833,146.5 308.167,147.5 308.5,148.5C 309.736,147.754 311.07,147.421 312.5,147.5C 312.942,149.972 313.275,152.472 313.5,155C 313.371,156.981 312.704,158.647 311.5,160C 313.347,162.579 313.847,165.412 313,168.5C 312.667,168.167 312.333,167.833 312,167.5C 311.781,168.938 311.281,170.271 310.5,171.5C 308.492,169.238 308.159,169.738 309.5,173C 308.141,174.204 307.141,175.704 306.5,177.5C 305.522,177.023 304.689,176.357 304,175.5C 304.135,177.425 304.302,179.425 304.5,181.5C 301.918,183.742 298.918,185.076 295.5,185.5C 295.027,184.094 294.027,183.427 292.5,183.5C 280.013,175.504 275.513,164.17 279,149.5C 283.008,139.161 289.008,130.161 297,122.5C 302.181,127.501 306.348,133.168 309.5,139.5 Z"/></g>
<g><path style="opacity:0.816" fill="#c89a41" d="M 313.5,128.5 C 315.288,128.215 316.955,128.548 318.5,129.5C 320.124,133.701 321.124,138.034 321.5,142.5C 322.5,142.5 323.5,142.5 324.5,142.5C 325.167,141.833 325.833,141.167 326.5,140.5C 326.62,141.586 327.287,142.253 328.5,142.5C 331.063,142.263 331.063,141.763 328.5,141C 338.927,140.265 349.26,139.098 359.5,137.5C 358.025,139.41 356.025,140.576 353.5,141C 343.87,139.522 334.703,141.022 326,145.5C 325.055,145.095 324.388,144.428 324,143.5C 323,144.833 322,144.833 321,143.5C 320.042,137.584 317.542,132.584 313.5,128.5 Z"/></g>
<g><path style="opacity:0.718" fill="#cda85a" d="M 276.5,132.5 C 274.587,136.39 272.921,140.39 271.5,144.5C 270.914,144.291 270.414,143.957 270,143.5C 268.121,146.066 266.288,146.066 264.5,143.5C 267.025,142.36 269.692,141.693 272.5,141.5C 272.192,139.076 272.526,136.743 273.5,134.5C 274.265,133.388 275.265,132.721 276.5,132.5 Z"/></g>
<g><path style="opacity:0.235" fill="#e9cba4" d="M 222.5,143.5 C 224.262,144.262 225.262,145.596 225.5,147.5C 223.738,146.738 222.738,145.404 222.5,143.5 Z"/></g>
<g><path style="opacity:0.365" fill="#cba963" d="M 371.5,143.5 C 370.92,145.749 369.587,147.415 367.5,148.5C 368.08,146.251 369.413,144.585 371.5,143.5 Z"/></g>
<g><path style="opacity:1" fill="#c7860a" d="M 221.5,143.5 C 220.995,147.163 222.495,149.497 226,150.5C 226.775,157.038 226.609,163.538 225.5,170C 224.289,172.282 222.622,172.782 220.5,171.5C 218.96,167.731 216.96,164.397 214.5,161.5C 213.048,159.152 212.382,156.486 212.5,153.5C 213.017,149.113 213.85,144.78 215,140.5C 215.414,140.043 215.914,139.709 216.5,139.5C 218.858,140.154 220.525,141.487 221.5,143.5 Z"/></g>
<g><path style="opacity:0.188" fill="#cead6f" d="M 357.5,152.5 C 357.5,151.5 357.5,150.5 357.5,149.5C 355.5,149.5 353.5,149.5 351.5,149.5C 353.343,148.717 355.343,148.05 357.5,147.5C 358.788,149.299 358.788,150.965 357.5,152.5 Z"/></g>
<g><path style="opacity:1" fill="#c7860c" d="M 374.5,171.5 C 372.876,171.64 371.71,170.973 371,169.5C 369.312,170.325 369.145,171.325 370.5,172.5C 369.311,173.429 367.978,173.762 366.5,173.5C 366.5,166.167 366.5,158.833 366.5,151.5C 366.557,150.391 366.89,149.391 367.5,148.5C 369.587,147.415 370.92,145.749 371.5,143.5C 373.089,141.694 375.089,140.361 377.5,139.5C 383.547,150.95 382.547,161.617 374.5,171.5 Z"/></g>
<g><path style="opacity:0.733" fill="#c79e3f" d="M 255.5,154.5 C 249.33,152.71 242.997,151.377 236.5,150.5C 236.5,151.5 236.5,152.5 236.5,153.5C 235.207,151.636 235.207,149.636 236.5,147.5C 243.295,148.873 249.628,151.206 255.5,154.5 Z"/></g>
<g><path style="opacity:1" fill="#c78505" d="M 255.5,154.5 C 258.368,155.353 261.035,156.686 263.5,158.5C 263.539,159.583 263.873,160.583 264.5,161.5C 266.982,163.464 269.648,165.131 272.5,166.5C 277.997,171.493 281.997,177.493 284.5,184.5C 284.682,186.591 284.348,188.591 283.5,190.5C 287.577,193.534 287.077,195.868 282,197.5C 278.826,196.56 275.993,195.06 273.5,193C 275.087,191.155 276.421,189.155 277.5,187C 275.65,184.307 273.983,181.474 272.5,178.5C 271.376,180.369 270.543,182.369 270,184.5C 267.028,181.493 263.861,178.826 260.5,176.5C 258.912,177.01 257.745,178.01 257,179.5C 254.092,177.975 250.926,176.975 247.5,176.5C 246.233,174.629 246.233,172.796 247.5,171C 246.241,170.077 244.908,169.243 243.5,168.5C 240.834,163.51 238.501,158.51 236.5,153.5C 236.5,152.5 236.5,151.5 236.5,150.5C 242.997,151.377 249.33,152.71 255.5,154.5 Z"/></g>
<g><path style="opacity:0.937" fill="#c7922d" d="M 309.5,139.5 C 315.048,147.218 316.881,155.885 315,165.5C 313.245,172.019 309.745,177.352 304.5,181.5C 304.302,179.425 304.135,177.425 304,175.5C 304.689,176.357 305.522,177.023 306.5,177.5C 307.141,175.704 308.141,174.204 309.5,173C 308.159,169.738 308.492,169.238 310.5,171.5C 311.281,170.271 311.781,168.938 312,167.5C 312.333,167.833 312.667,168.167 313,168.5C 313.847,165.412 313.347,162.579 311.5,160C 312.704,158.647 313.371,156.981 313.5,155C 313.275,152.472 312.942,149.972 312.5,147.5C 311.07,147.421 309.736,147.754 308.5,148.5C 308.167,147.5 307.833,146.5 307.5,145.5C 308.204,143.465 308.871,141.465 309.5,139.5 Z"/></g>
<g><path style="opacity:0.792" fill="#cca151" d="M 263.5,158.5 C 267.182,160.522 270.182,163.189 272.5,166.5C 269.648,165.131 266.982,163.464 264.5,161.5C 263.873,160.583 263.539,159.583 263.5,158.5 Z"/></g>
<g><path style="opacity:0.98" fill="#cda048" d="M 355.5,159.5 C 353.734,167.032 350.401,173.699 345.5,179.5C 346.291,176.465 347.291,173.465 348.5,170.5C 350.604,166.61 352.938,162.943 355.5,159.5 Z"/></g>
<g><path style="opacity:0.729" fill="#cfa75f" d="M 395.5,170.5 C 395.426,168.589 394.426,167.422 392.5,167C 388.745,166.245 385.078,166.411 381.5,167.5C 386.062,163.573 390.895,163.573 396,167.5C 396.74,168.749 396.573,169.749 395.5,170.5 Z"/></g>
<g><path style="opacity:1" fill="#c68a13" d="M 395.5,170.5 C 395.5,170.833 395.5,171.167 395.5,171.5C 393.744,172.552 393.077,174.219 393.5,176.5C 388.99,179.945 383.99,180.445 378.5,178C 376.692,173.663 377.692,170.163 381.5,167.5C 385.078,166.411 388.745,166.245 392.5,167C 394.426,167.422 395.426,168.589 395.5,170.5 Z"/></g>
<g><path style="opacity:1" fill="#c58917" d="M 202.5,164.5 C 210.379,164.043 215.046,167.71 216.5,175.5C 216.392,176.442 216.059,177.275 215.5,178C 210.537,179.747 205.537,179.913 200.5,178.5C 199.078,176.048 198.078,173.381 197.5,170.5C 197.667,169.5 197.833,168.5 198,167.5C 199.652,166.601 201.152,165.601 202.5,164.5 Z"/></g>
<g><path style="opacity:1" fill="#c7860a" d="M 351.5,149.5 C 353.5,149.5 355.5,149.5 357.5,149.5C 357.5,150.5 357.5,151.5 357.5,152.5C 357.59,155.152 356.924,157.485 355.5,159.5C 352.938,162.943 350.604,166.61 348.5,170.5C 347.291,173.465 346.291,176.465 345.5,179.5C 339.027,188.705 330.36,195.038 319.5,198.5C 314.734,198.598 310.067,199.264 305.5,200.5C 308.451,193.843 310.451,186.843 311.5,179.5C 320.345,163.721 333.679,153.721 351.5,149.5 Z"/></g>
<g><path style="opacity:0.871" fill="#d2aa64" d="M 395.5,171.5 C 395.88,173.698 395.213,175.365 393.5,176.5C 393.077,174.219 393.744,172.552 395.5,171.5 Z"/></g>
<g><path style="opacity:1" fill="#c58812" d="M 236.5,153.5 C 238.501,158.51 240.834,163.51 243.5,168.5C 244.908,169.243 246.241,170.077 247.5,171C 246.233,172.796 246.233,174.629 247.5,176.5C 250.926,176.975 254.092,177.975 257,179.5C 257.745,178.01 258.912,177.01 260.5,176.5C 263.861,178.826 267.028,181.493 270,184.5C 270.543,182.369 271.376,180.369 272.5,178.5C 273.983,181.474 275.65,184.307 277.5,187C 276.421,189.155 275.087,191.155 273.5,193C 275.993,195.06 278.826,196.56 282,197.5C 287.077,195.868 287.577,193.534 283.5,190.5C 284.348,188.591 284.682,186.591 284.5,184.5C 286.097,186.848 287.097,189.514 287.5,192.5C 287.963,195.482 288.296,198.482 288.5,201.5C 286.833,201.5 285.167,201.5 283.5,201.5C 257.824,195.461 242.157,179.461 236.5,153.5 Z"/></g>
<g><path style="opacity:0.999" fill="#c58d23" d="M 221.5,143.5 C 221.833,143.5 222.167,143.5 222.5,143.5C 222.738,145.404 223.738,146.738 225.5,147.5C 226.504,148.683 227.338,150.016 228,151.5C 228.333,158.833 228.667,166.167 229,173.5C 232.443,176.988 233.277,180.988 231.5,185.5C 227.015,185.717 223.015,187.217 219.5,190C 215.473,194.027 211.473,198.027 207.5,202C 203.94,203.237 200.273,203.737 196.5,203.5C 193.013,202.612 191.68,200.279 192.5,196.5C 194.855,191.478 198.522,187.812 203.5,185.5C 205.741,184.379 208.075,183.213 210.5,182C 216.5,181.667 222.5,181.333 228.5,181C 221.085,176.224 216.419,169.724 214.5,161.5C 216.96,164.397 218.96,167.731 220.5,171.5C 222.622,172.782 224.289,172.282 225.5,170C 226.609,163.538 226.775,157.038 226,150.5C 222.495,149.497 220.995,147.163 221.5,143.5 Z"/></g>
<g><path style="opacity:0.18" fill="#ecd7b0" d="M 292.5,183.5 C 294.027,183.427 295.027,184.094 295.5,185.5C 293.973,185.573 292.973,184.906 292.5,183.5 Z"/></g>
<g><path style="opacity:1" fill="#c89026" d="M 366.5,151.5 C 366.5,158.833 366.5,166.167 366.5,173.5C 367.978,173.762 369.311,173.429 370.5,172.5C 369.145,171.325 369.312,170.325 371,169.5C 371.71,170.973 372.876,171.64 374.5,171.5C 371.704,174.797 368.704,177.964 365.5,181C 371.5,181.333 377.5,181.667 383.5,182C 386.069,182.898 388.402,184.065 390.5,185.5C 389.504,185.414 388.671,185.748 388,186.5C 385.87,184.176 383.37,183.51 380.5,184.5C 381.911,186.017 381.744,187.351 380,188.5C 378.89,186.963 377.39,186.297 375.5,186.5C 375.33,187.822 375.663,188.989 376.5,190C 378.107,189.981 379.774,189.815 381.5,189.5C 381.547,192.969 382.213,196.302 383.5,199.5C 379.246,193.851 373.912,189.351 367.5,186C 365.866,185.506 364.199,185.34 362.5,185.5C 362.528,183.418 361.861,181.584 360.5,180C 365.321,173.187 366.655,165.687 364.5,157.5C 364.878,155.283 365.545,153.283 366.5,151.5 Z"/></g>
<g><path style="opacity:1" fill="#c88403" d="M 203.5,185.5 C 205.547,185.489 207.547,185.156 209.5,184.5C 212.394,185.399 215.061,186.732 217.5,188.5C 214.365,187.863 211.365,188.529 208.5,190.5C 208.977,191.478 209.643,192.311 210.5,193C 209.788,194.425 209.621,195.925 210,197.5C 206.942,197.763 203.775,197.93 200.5,198C 199.027,198.71 198.36,199.876 198.5,201.5C 194.673,201.56 194.006,200.393 196.5,198C 195.978,197.439 195.645,196.772 195.5,196C 198.472,192.824 201.138,189.324 203.5,185.5 Z"/></g>
<g><path style="opacity:1" fill="#c7870b" d="M 390.5,185.5 C 395.556,188.223 399.223,192.223 401.5,197.5C 401.5,199.167 401.5,200.833 401.5,202.5C 395.736,202.563 390.07,201.897 384.5,200.5C 384.5,199.833 384.167,199.5 383.5,199.5C 382.213,196.302 381.547,192.969 381.5,189.5C 379.774,189.815 378.107,189.981 376.5,190C 375.663,188.989 375.33,187.822 375.5,186.5C 377.39,186.297 378.89,186.963 380,188.5C 381.744,187.351 381.911,186.017 380.5,184.5C 383.37,183.51 385.87,184.176 388,186.5C 388.671,185.748 389.504,185.414 390.5,185.5 Z"/></g>
<g><path style="opacity:1" fill="#c78609" d="M 269.5,204.5 C 269.539,205.583 269.873,206.583 270.5,207.5C 269.011,207.533 267.678,208.033 266.5,209C 267.973,209.71 268.64,210.876 268.5,212.5C 267.448,212.351 266.448,212.517 265.5,213C 266.973,213.71 267.64,214.876 267.5,216.5C 265.202,217.31 262.868,218.144 260.5,219C 259.359,219.741 259.359,220.575 260.5,221.5C 259.41,223.003 258.243,223.336 257,222.5C 256.51,223.793 256.343,225.127 256.5,226.5C 242.428,230.487 230.094,227.487 219.5,217.5C 216.805,214.474 214.138,211.474 211.5,208.5C 220.647,198.175 232.147,192.175 246,190.5C 256.543,190.922 264.376,195.589 269.5,204.5 Z"/></g>
<g><path style="opacity:1" fill="#c88502" d="M 344.5,191.5 C 350.279,192.039 355.946,193.039 361.5,194.5C 361.5,195.5 361.5,196.5 361.5,197.5C 359.167,197.5 356.833,197.5 354.5,197.5C 354.67,198.822 354.337,199.989 353.5,201C 354.167,201.333 354.833,201.667 355.5,202C 359.018,201.5 362.518,201.666 366,202.5C 368.024,200.215 370.191,200.215 372.5,202.5C 374.623,205.143 375.956,207.809 376.5,210.5C 376.167,210.833 375.833,211.167 375.5,211.5C 373.677,210.253 371.677,209.586 369.5,209.5C 369.5,208.167 369.5,206.833 369.5,205.5C 367.571,205.231 365.905,205.731 364.5,207C 366.993,208.325 368.16,210.491 368,213.5C 371.881,210.522 374.048,211.522 374.5,216.5C 373.167,216.5 371.833,216.5 370.5,216.5C 370.5,217.833 370.5,219.167 370.5,220.5C 369.71,221.401 368.71,222.068 367.5,222.5C 362.477,223.379 357.81,225.045 353.5,227.5C 347.503,228.005 341.836,227.005 336.5,224.5C 336.5,223.5 336.5,222.5 336.5,221.5C 335.022,221.762 333.689,221.429 332.5,220.5C 333.5,219.167 334.5,217.833 335.5,216.5C 333.389,215.152 331.555,215.485 330,217.5C 328.796,216.141 327.296,215.141 325.5,214.5C 327.593,212.444 328.926,209.944 329.5,207C 328.552,206.517 327.552,206.351 326.5,206.5C 327.494,203.843 328.494,201.176 329.5,198.5C 333.318,193.759 338.318,191.426 344.5,191.5 Z"/></g>
<g><path style="opacity:1" fill="#c68c1e" d="M 344.5,191.5 C 354.285,190.348 363.285,192.848 371.5,199C 375.092,201.713 378.592,204.547 382,207.5C 382.667,208.833 382.667,210.167 382,211.5C 378.59,215.112 374.756,218.112 370.5,220.5C 370.5,219.167 370.5,217.833 370.5,216.5C 371.833,216.5 373.167,216.5 374.5,216.5C 374.048,211.522 371.881,210.522 368,213.5C 368.16,210.491 366.993,208.325 364.5,207C 365.905,205.731 367.571,205.231 369.5,205.5C 369.5,206.833 369.5,208.167 369.5,209.5C 371.677,209.586 373.677,210.253 375.5,211.5C 375.833,211.167 376.167,210.833 376.5,210.5C 375.956,207.809 374.623,205.143 372.5,202.5C 370.191,200.215 368.024,200.215 366,202.5C 362.518,201.666 359.018,201.5 355.5,202C 354.833,201.667 354.167,201.333 353.5,201C 354.337,199.989 354.67,198.822 354.5,197.5C 356.833,197.5 359.167,197.5 361.5,197.5C 361.5,196.5 361.5,195.5 361.5,194.5C 355.946,193.039 350.279,192.039 344.5,191.5 Z"/></g>
<g><path style="opacity:0.176" fill="#c6a05a" d="M 287.5,192.5 C 289.175,195.507 289.841,198.84 289.5,202.5C 287.265,202.795 285.265,202.461 283.5,201.5C 285.167,201.5 286.833,201.5 288.5,201.5C 288.296,198.482 287.963,195.482 287.5,192.5 Z"/></g>
<g><path style="opacity:0.608" fill="#c19d49" d="M 192.5,196.5 C 191.68,200.279 193.013,202.612 196.5,203.5C 190.337,203.814 189.004,201.481 192.5,196.5 Z"/></g>
<g><path style="opacity:0.765" fill="#c49535" d="M 311.5,179.5 C 310.451,186.843 308.451,193.843 305.5,200.5C 310.067,199.264 314.734,198.598 319.5,198.5C 314.64,201.049 309.307,202.382 303.5,202.5C 304.929,194.272 307.595,186.605 311.5,179.5 Z"/></g>
<g><path style="opacity:0.902" fill="#c89a43" d="M 401.5,197.5 C 403.008,199.171 403.341,201.004 402.5,203C 398.167,203.667 393.833,203.667 389.5,203C 387.509,202.626 385.842,201.793 384.5,200.5C 390.07,201.897 395.736,202.563 401.5,202.5C 401.5,200.833 401.5,199.167 401.5,197.5 Z"/></g>
<g><path style="opacity:0.541" fill="#cca754" d="M 211.5,208.5 C 214.138,211.474 216.805,214.474 219.5,217.5C 216.564,215.745 213.731,213.745 211,211.5C 210.26,210.251 210.427,209.251 211.5,208.5 Z"/></g>
<g><path style="opacity:0.722" fill="#c8a255" d="M 202.5,216.5 C 199.119,216.46 195.786,216.793 192.5,217.5C 192.5,218.5 192.5,219.5 192.5,220.5C 193.942,221.82 194.608,223.486 194.5,225.5C 191.47,223.12 190.47,220.12 191.5,216.5C 195.299,215.207 198.966,215.207 202.5,216.5 Z"/></g>
<g><path style="opacity:1" fill="#c7860a" d="M 202.5,216.5 C 204.262,216.357 205.929,216.691 207.5,217.5C 212.521,222.748 217.855,227.581 223.5,232C 225.345,233.128 227.345,233.628 229.5,233.5C 228.167,234.833 228.167,236.167 229.5,237.5C 227.5,237.5 225.5,237.5 223.5,237.5C 218.983,236.834 214.317,236.167 209.5,235.5C 209.023,234.522 208.357,233.689 207.5,233C 201.9,232.547 198.234,229.714 196.5,224.5C 197.795,221.198 196.462,219.865 192.5,220.5C 192.5,219.5 192.5,218.5 192.5,217.5C 195.786,216.793 199.119,216.46 202.5,216.5 Z"/></g>
<g><path style="opacity:1" fill="#c58d22" d="M 329.5,198.5 C 328.494,201.176 327.494,203.843 326.5,206.5C 327.552,206.351 328.552,206.517 329.5,207C 328.926,209.944 327.593,212.444 325.5,214.5C 327.296,215.141 328.796,216.141 330,217.5C 331.555,215.485 333.389,215.152 335.5,216.5C 334.5,217.833 333.5,219.167 332.5,220.5C 333.689,221.429 335.022,221.762 336.5,221.5C 336.5,222.5 336.5,223.5 336.5,224.5C 341.836,227.005 347.503,228.005 353.5,227.5C 338.949,230.142 328.116,224.809 321,211.5C 320.333,210.167 320.333,208.833 321,207.5C 323.412,203.926 326.245,200.926 329.5,198.5 Z"/></g>
<g><path style="opacity:0.745" fill="#cbac5f" d="M 400.5,216.5 C 401.5,216.5 402.5,216.5 403.5,216.5C 403.405,218.786 402.738,220.786 401.5,222.5C 401.675,220.379 401.341,218.379 400.5,216.5 Z"/></g>
<g><path style="opacity:1" fill="#c5912a" d="M 269.5,204.5 C 272.987,206.448 273.82,209.114 272,212.5C 268.538,219.132 263.371,223.799 256.5,226.5C 256.343,225.127 256.51,223.793 257,222.5C 258.243,223.336 259.41,223.003 260.5,221.5C 259.359,220.575 259.359,219.741 260.5,219C 262.868,218.144 265.202,217.31 267.5,216.5C 267.64,214.876 266.973,213.71 265.5,213C 266.448,212.517 267.448,212.351 268.5,212.5C 268.64,210.876 267.973,209.71 266.5,209C 267.678,208.033 269.011,207.533 270.5,207.5C 269.873,206.583 269.539,205.583 269.5,204.5 Z"/></g>
<g><path style="opacity:1" fill="#c78f28" d="M 400.5,216.5 C 401.341,218.379 401.675,220.379 401.5,222.5C 400.189,225.135 398.522,227.469 396.5,229.5C 396.824,225.445 396.491,221.445 395.5,217.5C 394.707,217.069 393.873,216.735 393,216.5C 390.41,218.273 387.577,219.273 384.5,219.5C 385.975,217.59 387.975,216.424 390.5,216C 394.027,215.192 397.36,215.359 400.5,216.5 Z"/></g>
<g><path style="opacity:1" fill="#c4902a" d="M 192.5,220.5 C 196.462,219.865 197.795,221.198 196.5,224.5C 198.234,229.714 201.9,232.547 207.5,233C 208.357,233.689 209.023,234.522 209.5,235.5C 214.317,236.167 218.983,236.834 223.5,237.5C 215.641,238.498 208.307,237.165 201.5,233.5C 198.405,231.411 196.071,228.744 194.5,225.5C 194.608,223.486 193.942,221.82 192.5,220.5 Z"/></g>
<g><path style="opacity:1" fill="#c7880f" d="M 285.5,217.5 C 286.5,217.5 287.5,217.5 288.5,217.5C 286.095,224.884 283.595,232.217 281,239.5C 280.667,239.167 280.333,238.833 280,238.5C 279.506,240.134 279.34,241.801 279.5,243.5C 276.208,251.083 270.874,256.749 263.5,260.5C 263.343,259.127 263.51,257.793 264,256.5C 264.556,258.595 265.056,258.762 265.5,257C 263.998,254.994 264.331,253.328 266.5,252C 265.833,251.667 265.167,251.333 264.5,251C 265.667,250.5 266.5,249.667 267,248.5C 267.974,250.878 268.641,250.544 269,247.5C 269.869,250.763 271.203,251.096 273,248.5C 273.895,245.534 273.395,242.867 271.5,240.5C 268.897,241.562 266.23,241.728 263.5,241C 257.918,240.39 257.418,238.89 262,236.5C 262.899,238.327 264.233,239.66 266,240.5C 267.482,238.888 269.315,237.888 271.5,237.5C 271.5,234.833 271.5,232.167 271.5,229.5C 266.564,228.963 265.564,230.463 268.5,234C 268.387,235.28 267.72,236.113 266.5,236.5C 265.108,231.893 262.608,231.226 259,234.5C 258.722,233.584 258.222,232.918 257.5,232.5C 258.11,231.609 258.443,230.609 258.5,229.5C 260.862,227.756 263.195,225.923 265.5,224C 271.868,220.933 278.535,218.766 285.5,217.5 Z"/></g>
<g><path style="opacity:1" fill="#c88503" d="M 333.5,228.5 C 333.539,229.583 333.873,230.583 334.5,231.5C 333.675,232.386 332.675,232.719 331.5,232.5C 331.5,233.5 331.5,234.5 331.5,235.5C 334.834,236.806 338.334,237.806 342,238.5C 344.301,239.676 344.634,241.01 343,242.5C 339.739,240.811 336.239,239.811 332.5,239.5C 332.744,243.789 334.411,244.456 337.5,241.5C 337.833,242.333 338.167,243.167 338.5,244C 337.343,247.113 336.843,250.28 337,253.5C 338.836,252.331 340.002,250.664 340.5,248.5C 341.689,247.571 343.022,247.238 344.5,247.5C 344.5,246.5 344.5,245.5 344.5,244.5C 347.91,244.384 349.244,246.05 348.5,249.5C 347.5,249.5 346.5,249.5 345.5,249.5C 345.286,251.144 345.62,252.644 346.5,254C 345.624,255.586 344.624,257.086 343.5,258.5C 344.025,259.192 344.692,259.692 345.5,260C 345.167,260.333 344.833,260.667 344.5,261C 340.176,262.915 336.009,262.415 332,259.5C 331.544,258.256 332.044,257.423 333.5,257C 330.995,255.705 328.328,255.539 325.5,256.5C 325.643,254.738 325.309,253.071 324.5,251.5C 321.564,249.651 318.564,247.984 315.5,246.5C 310.747,240.237 307.747,233.237 306.5,225.5C 307.248,223.416 307.248,221.416 306.5,219.5C 307.167,219.167 307.833,218.833 308.5,218.5C 310.94,219.893 313.607,220.727 316.5,221C 317.428,222.976 318.595,224.809 320,226.5C 323.564,223.843 326.73,224.343 329.5,228C 330.793,228.49 332.127,228.657 333.5,228.5 Z"/></g>
<g><path style="opacity:1" fill="#c5912e" d="M 333.5,228.5 C 332.127,228.657 330.793,228.49 329.5,228C 326.73,224.343 323.564,223.843 320,226.5C 318.595,224.809 317.428,222.976 316.5,221C 313.607,220.727 310.94,219.893 308.5,218.5C 307.833,218.833 307.167,219.167 306.5,219.5C 307.248,221.416 307.248,223.416 306.5,225.5C 304.747,222.854 303.747,219.854 303.5,216.5C 314.756,217.58 324.756,221.58 333.5,228.5 Z"/></g>
<g><path style="opacity:1" fill="#c78503" d="M 396.5,229.5 C 396.167,229.5 395.833,229.5 395.5,229.5C 393.194,229.993 390.861,230.326 388.5,230.5C 388.67,231.822 388.337,232.989 387.5,234C 385.131,234.314 382.964,235.148 381,236.5C 378.367,236.077 376.201,234.91 374.5,233C 376.321,229.846 378.821,227.346 382,225.5C 382.573,223.359 383.406,221.359 384.5,219.5C 387.577,219.273 390.41,218.273 393,216.5C 393.873,216.735 394.707,217.069 395.5,217.5C 396.491,221.445 396.824,225.445 396.5,229.5 Z"/></g>
<g><path style="opacity:0.812" fill="#cd9e47" d="M 367.5,222.5 C 363.35,225.33 358.683,226.997 353.5,227.5C 357.81,225.045 362.477,223.379 367.5,222.5 Z"/></g>
<g><path style="opacity:0.992" fill="#c89840" d="M 285.5,217.5 C 286.568,216.566 287.901,216.232 289.5,216.5C 288.445,225.277 285.945,233.611 282,241.5C 281.292,242.381 280.458,243.047 279.5,243.5C 279.34,241.801 279.506,240.134 280,238.5C 280.333,238.833 280.667,239.167 281,239.5C 283.595,232.217 286.095,224.884 288.5,217.5C 287.5,217.5 286.5,217.5 285.5,217.5 Z"/></g>
<g><path style="opacity:1" fill="#c58d1f" d="M 384.5,219.5 C 383.406,221.359 382.573,223.359 382,225.5C 378.821,227.346 376.321,229.846 374.5,233C 376.201,234.91 378.367,236.077 381,236.5C 382.964,235.148 385.131,234.314 387.5,234C 388.337,232.989 388.67,231.822 388.5,230.5C 390.861,230.326 393.194,229.993 395.5,229.5C 392.92,233.343 389.253,235.843 384.5,237C 377.833,237.333 371.167,237.667 364.5,238C 371.325,242.302 375.992,248.136 378.5,255.5C 376.968,254.323 375.468,252.989 374,251.5C 373.734,248.287 372.068,246.287 369,245.5C 367.699,245.639 366.866,246.305 366.5,247.5C 363.472,243.317 362.805,238.65 364.5,233.5C 366.564,233.313 368.564,232.813 370.5,232C 375.407,227.917 380.073,223.75 384.5,219.5 Z"/></g>
<g><path style="opacity:0.561" fill="#cba051" d="M 258.5,229.5 C 258.443,230.609 258.11,231.609 257.5,232.5C 254.831,234.519 252.164,236.519 249.5,238.5C 251.812,234.855 254.812,231.855 258.5,229.5 Z"/></g>
<g><path style="opacity:0.949" fill="#c6a048" d="M 305.5,239.5 C 301.889,237.102 297.889,235.769 293.5,235.5C 295.011,233.559 297.011,233.059 299.5,234C 301.763,235.617 303.763,237.45 305.5,239.5 Z"/></g>
<g><path style="opacity:1" fill="#c78504" d="M 263.5,260.5 C 261.54,261.138 259.707,261.138 258,260.5C 256.812,261.563 256.312,262.897 256.5,264.5C 252.488,264.408 248.988,265.075 246,266.5C 244.135,264.479 241.968,262.813 239.5,261.5C 240.167,261.167 240.833,260.833 241.5,260.5C 244.843,261.695 248.177,262.529 251.5,263C 248.079,260.623 244.412,258.79 240.5,257.5C 240.5,256.167 240.5,254.833 240.5,253.5C 242.246,247.662 245.246,242.662 249.5,238.5C 252.164,236.519 254.831,234.519 257.5,232.5C 258.222,232.918 258.722,233.584 259,234.5C 262.608,231.226 265.108,231.893 266.5,236.5C 267.72,236.113 268.387,235.28 268.5,234C 265.564,230.463 266.564,228.963 271.5,229.5C 271.5,232.167 271.5,234.833 271.5,237.5C 269.315,237.888 267.482,238.888 266,240.5C 264.233,239.66 262.899,238.327 262,236.5C 257.418,238.89 257.918,240.39 263.5,241C 266.23,241.728 268.897,241.562 271.5,240.5C 273.395,242.867 273.895,245.534 273,248.5C 271.203,251.096 269.869,250.763 269,247.5C 268.641,250.544 267.974,250.878 267,248.5C 266.5,249.667 265.667,250.5 264.5,251C 265.167,251.333 265.833,251.667 266.5,252C 264.331,253.328 263.998,254.994 265.5,257C 265.056,258.762 264.556,258.595 264,256.5C 263.51,257.793 263.343,259.127 263.5,260.5 Z"/></g>
<g><path style="opacity:0.922" fill="#c7a156" d="M 229.5,233.5 C 231.301,234.719 232.301,236.552 232.5,239C 232.192,240.459 231.525,241.626 230.5,242.5C 230.768,240.901 230.434,239.568 229.5,238.5C 229.5,238.167 229.5,237.833 229.5,237.5C 228.167,236.167 228.167,234.833 229.5,233.5 Z"/></g>
<g><path style="opacity:1" fill="#c78504" d="M 293.5,235.5 C 297.889,235.769 301.889,237.102 305.5,239.5C 313.626,245.324 316.96,253.324 315.5,263.5C 313.728,267.613 312.395,271.947 311.5,276.5C 311.443,277.609 311.11,278.609 310.5,279.5C 306.877,280.295 304.71,282.628 304,286.5C 301.598,283.286 302.098,280.786 305.5,279C 304.027,278.29 303.36,277.124 303.5,275.5C 306.336,275.798 306.836,275.131 305,273.5C 304.586,273.957 304.086,274.291 303.5,274.5C 302.462,277.328 301.129,279.995 299.5,282.5C 301.479,284.264 301.812,286.264 300.5,288.5C 298.323,287.496 297.989,288.162 299.5,290.5C 297.318,292.447 294.984,292.781 292.5,291.5C 294.733,284.8 292.4,280.634 285.5,279C 285.833,278.667 286.167,278.333 286.5,278C 284.593,275.208 283.427,272.042 283,268.5C 282.333,267.167 281.667,267.167 281,268.5C 280.667,267.833 280.333,267.167 280,266.5C 280.884,259.895 281.717,253.228 282.5,246.5C 284.993,241.735 288.66,238.069 293.5,235.5 Z"/></g>
<g><path style="opacity:1" fill="#c1983c" d="M 390.5,240.5 C 394.845,242.822 396.678,246.489 396,251.5C 392.128,254.538 387.961,255.205 383.5,253.5C 386.881,253.54 390.214,253.207 393.5,252.5C 393.664,249.813 393.497,247.146 393,244.5C 391.294,243.692 390.461,242.359 390.5,240.5 Z"/></g>
<g><path style="opacity:1" fill="#c8860b" d="M 215.5,245.5 C 214.732,246.263 214.232,247.263 214,248.5C 213.667,248.167 213.333,247.833 213,247.5C 212.935,249.883 212.102,250.55 210.5,249.5C 209.833,250.5 209.167,251.5 208.5,252.5C 205.579,251.593 202.579,251.26 199.5,251.5C 199.34,249.801 199.506,248.134 200,246.5C 201.82,244.868 202.986,242.868 203.5,240.5C 207.177,239.187 210.843,239.353 214.5,241C 216.466,242.347 216.799,243.847 215.5,245.5 Z"/></g>
<g><path style="opacity:0.376" fill="#c99f46" d="M 364.5,233.5 C 362.805,238.65 363.472,243.317 366.5,247.5C 365.923,256.403 366.923,265.07 369.5,273.5C 366.36,270.271 364.693,266.271 364.5,261.5C 366.655,253.313 365.321,245.813 360.5,239C 361.615,236.869 362.948,235.035 364.5,233.5 Z"/></g>
<g><path style="opacity:1" fill="#c19027" d="M 203.5,240.5 C 202.986,242.868 201.82,244.868 200,246.5C 199.506,248.134 199.34,249.801 199.5,251.5C 202.579,251.26 205.579,251.593 208.5,252.5C 209.167,251.5 209.833,250.5 210.5,249.5C 212.102,250.55 212.935,249.883 213,247.5C 213.333,247.833 213.667,248.167 214,248.5C 214.232,247.263 214.732,246.263 215.5,245.5C 214.072,253.399 209.405,256.233 201.5,254C 196.944,251.385 196.277,247.885 199.5,243.5C 200.283,241.712 201.616,240.712 203.5,240.5 Z"/></g>
<g><path style="opacity:1" fill="#c58916" d="M 333.5,228.5 C 340.34,233.232 345.673,239.232 349.5,246.5C 351.313,250.211 352.48,254.211 353,258.5C 354.524,260.898 356.024,263.231 357.5,265.5C 358.341,267.379 358.675,269.379 358.5,271.5C 340.553,269.038 326.22,260.705 315.5,246.5C 318.564,247.984 321.564,249.651 324.5,251.5C 325.309,253.071 325.643,254.738 325.5,256.5C 328.328,255.539 330.995,255.705 333.5,257C 332.044,257.423 331.544,258.256 332,259.5C 336.009,262.415 340.176,262.915 344.5,261C 344.833,260.667 345.167,260.333 345.5,260C 344.692,259.692 344.025,259.192 343.5,258.5C 344.624,257.086 345.624,255.586 346.5,254C 345.62,252.644 345.286,251.144 345.5,249.5C 346.5,249.5 347.5,249.5 348.5,249.5C 349.244,246.05 347.91,244.384 344.5,244.5C 344.5,245.5 344.5,246.5 344.5,247.5C 343.022,247.238 341.689,247.571 340.5,248.5C 340.002,250.664 338.836,252.331 337,253.5C 336.843,250.28 337.343,247.113 338.5,244C 338.167,243.167 337.833,242.333 337.5,241.5C 334.411,244.456 332.744,243.789 332.5,239.5C 336.239,239.811 339.739,240.811 343,242.5C 344.634,241.01 344.301,239.676 342,238.5C 338.334,237.806 334.834,236.806 331.5,235.5C 331.5,234.5 331.5,233.5 331.5,232.5C 332.675,232.719 333.675,232.386 334.5,231.5C 333.873,230.583 333.539,229.583 333.5,228.5 Z"/></g>
<g><path style="opacity:0.996" fill="#c68713" d="M 390.5,240.5 C 390.461,242.359 391.294,243.692 393,244.5C 393.497,247.146 393.664,249.813 393.5,252.5C 390.214,253.207 386.881,253.54 383.5,253.5C 378.722,250.94 376.889,246.94 378,241.5C 382.073,239.511 386.24,239.178 390.5,240.5 Z"/></g>
<g><path style="opacity:1" fill="#c88712" d="M 229.5,238.5 C 230.434,239.568 230.768,240.901 230.5,242.5C 230.539,243.756 230.039,244.756 229,245.5C 228.801,253.245 228.301,260.912 227.5,268.5C 226.5,268.5 225.5,268.5 224.5,268.5C 224.5,269.5 224.5,270.5 224.5,271.5C 222.201,272.138 220.034,273.138 218,274.5C 219.014,271.521 218.348,268.854 216,266.5C 215.667,267.167 215.333,267.833 215,268.5C 214.333,265.5 214.333,262.5 215,259.5C 215.333,259.833 215.667,260.167 216,260.5C 216.638,259.391 217.138,258.225 217.5,257C 216.614,254.888 216.614,252.722 217.5,250.5C 220.167,245.167 224.167,241.167 229.5,238.5 Z"/></g>
<g><path style="opacity:1" fill="#c78504" d="M 378.5,255.5 C 379.338,255.842 379.672,256.508 379.5,257.5C 379.749,260.002 380.083,262.502 380.5,265C 379.111,268.721 378.444,272.554 378.5,276.5C 377.735,276.923 376.902,277.257 376,277.5C 374.228,275.569 372.062,274.235 369.5,273.5C 366.923,265.07 365.923,256.403 366.5,247.5C 366.866,246.305 367.699,245.639 369,245.5C 372.068,246.287 373.734,248.287 374,251.5C 375.468,252.989 376.968,254.323 378.5,255.5 Z"/></g>
<g><path style="opacity:0.847" fill="#cb9d3e" d="M 349.5,246.5 C 353.693,252.047 356.36,258.381 357.5,265.5C 356.024,263.231 354.524,260.898 353,258.5C 352.48,254.211 351.313,250.211 349.5,246.5 Z"/></g>
<g><path style="opacity:0.992" fill="#d29c4d" d="M 263.5,260.5 C 261.664,262.588 259.331,263.921 256.5,264.5C 256.312,262.897 256.812,261.563 258,260.5C 259.707,261.138 261.54,261.138 263.5,260.5 Z"/></g>
<g><path style="opacity:1" fill="#c78c1e" d="M 240.5,253.5 C 240.5,254.833 240.5,256.167 240.5,257.5C 244.412,258.79 248.079,260.623 251.5,263C 248.177,262.529 244.843,261.695 241.5,260.5C 240.833,260.833 240.167,261.167 239.5,261.5C 241.968,262.813 244.135,264.479 246,266.5C 248.988,265.075 252.488,264.408 256.5,264.5C 250.052,268.205 243.052,270.538 235.5,271.5C 235.981,265.072 237.647,259.072 240.5,253.5 Z"/></g>
<g><path style="opacity:1" fill="#c48e25" d="M 217.5,250.5 C 216.614,252.722 216.614,254.888 217.5,257C 217.138,258.225 216.638,259.391 216,260.5C 215.667,260.167 215.333,259.833 215,259.5C 214.333,262.5 214.333,265.5 215,268.5C 215.333,267.833 215.667,267.167 216,266.5C 218.348,268.854 219.014,271.521 218,274.5C 220.034,273.138 222.201,272.138 224.5,271.5C 224.5,270.5 224.5,269.5 224.5,268.5C 225.5,268.5 226.5,268.5 227.5,268.5C 219.161,283.831 214.161,282.998 212.5,266C 212.728,260.213 214.395,255.047 217.5,250.5 Z"/></g>
<g><path style="opacity:1" fill="#c9983f" d="M 379.5,257.5 C 381.047,259.807 381.713,262.473 381.5,265.5C 381.867,269.653 380.867,273.32 378.5,276.5C 378.444,272.554 379.111,268.721 380.5,265C 380.083,262.502 379.749,260.002 379.5,257.5 Z"/></g>
<g><path style="opacity:0.784" fill="#d29f5a" d="M 315.5,263.5 C 315.412,268.33 314.078,272.663 311.5,276.5C 312.395,271.947 313.728,267.613 315.5,263.5 Z"/></g>
<g><path style="opacity:1" fill="#ca922e" d="M 310.5,279.5 C 306.594,285.58 302.094,291.246 297,296.5C 295.034,295.22 293.534,293.553 292.5,291.5C 294.984,292.781 297.318,292.447 299.5,290.5C 297.989,288.162 298.323,287.496 300.5,288.5C 301.812,286.264 301.479,284.264 299.5,282.5C 301.129,279.995 302.462,277.328 303.5,274.5C 304.086,274.291 304.586,273.957 305,273.5C 306.836,275.131 306.336,275.798 303.5,275.5C 303.36,277.124 304.027,278.29 305.5,279C 302.098,280.786 301.598,283.286 304,286.5C 304.71,282.628 306.877,280.295 310.5,279.5 Z"/></g>
<g><path style="opacity:0.98" fill="#c29c42" d="M 369.5,273.5 C 372.062,274.235 374.228,275.569 376,277.5C 376.902,277.257 377.735,276.923 378.5,276.5C 378.5,277.5 378.5,278.5 378.5,279.5C 374.435,279.103 371.435,277.103 369.5,273.5 Z"/></g>
<g><path style="opacity:1" fill="#c59331" d="M 275.5,284.5 C 273.386,283.64 272.22,281.973 272,279.5C 269.741,284.561 268.908,289.895 269.5,295.5C 268.673,290.015 268.173,284.348 268,278.5C 266.945,281.056 265.112,282.723 262.5,283.5C 262.34,281.801 262.506,280.134 263,278.5C 265.485,280.804 265.985,280.137 264.5,276.5C 263.583,277.127 262.583,277.461 261.5,277.5C 264.629,274.114 268.295,273.614 272.5,276C 273.191,278.98 274.191,281.814 275.5,284.5 Z"/></g>
<g><path style="opacity:0.318" fill="#c69f51" d="M 330.5,276.5 C 333.928,277.474 337.428,278.141 341,278.5C 346.445,276.963 351.778,277.296 357,279.5C 358.03,279.836 358.53,280.503 358.5,281.5C 350.939,279.964 343.273,279.13 335.5,279C 333.256,278.95 331.589,278.117 330.5,276.5 Z"/></g>
<g><path style="opacity:1" fill="#c48c20" d="M 282.5,246.5 C 281.717,253.228 280.884,259.895 280,266.5C 280.333,267.167 280.667,267.833 281,268.5C 281.667,267.167 282.333,267.167 283,268.5C 283.427,272.042 284.593,275.208 286.5,278C 286.167,278.333 285.833,278.667 285.5,279C 292.4,280.634 294.733,284.8 292.5,291.5C 280.917,280.644 276.417,267.311 279,251.5C 279.697,249.416 280.864,247.749 282.5,246.5 Z"/></g>
<g><path style="opacity:1" fill="#c78916" d="M 262.5,283.5 C 254.977,292.507 245.31,295.674 233.5,293C 227.975,292.775 226.475,290.275 229,285.5C 231.344,282.739 234.178,280.572 237.5,279C 245.468,278.308 253.468,277.808 261.5,277.5C 262.583,277.461 263.583,277.127 264.5,276.5C 265.985,280.137 265.485,280.804 263,278.5C 262.506,280.134 262.34,281.801 262.5,283.5 Z"/></g>
<g><path style="opacity:1" fill="#c78609" d="M 330.5,276.5 C 331.589,278.117 333.256,278.95 335.5,279C 343.273,279.13 350.939,279.964 358.5,281.5C 359.167,281.5 359.833,281.5 360.5,281.5C 361.929,284.308 362.595,287.308 362.5,290.5C 356.946,291.925 351.279,292.591 345.5,292.5C 337.154,290.478 330.821,285.811 326.5,278.5C 327.183,276.824 328.517,276.157 330.5,276.5 Z"/></g>
<g><path style="opacity:0.741" fill="#c7a14f" d="M 338.5,293.5 C 335.574,292.539 332.574,291.873 329.5,291.5C 329.47,290.503 329.97,289.836 331,289.5C 333.867,290.381 336.367,291.714 338.5,293.5 Z"/></g>
<g><path style="opacity:1" fill="#c59435" d="M 360.5,281.5 C 362.935,283.271 364.602,285.604 365.5,288.5C 365.443,289.609 365.11,290.609 364.5,291.5C 360.946,292.984 357.112,293.651 353,293.5C 350.31,293.497 347.81,293.164 345.5,292.5C 351.279,292.591 356.946,291.925 362.5,290.5C 362.595,287.308 361.929,284.308 360.5,281.5 Z"/></g>
<g><path style="opacity:0.02" fill="#eddaa8" d="M 365.5,288.5 C 366.885,289.947 366.552,290.947 364.5,291.5C 365.11,290.609 365.443,289.609 365.5,288.5 Z"/></g>
<g><path style="opacity:0.996" fill="#c29130" d="M 253.5,306.5 C 253.5,304.833 253.5,303.167 253.5,301.5C 254.708,302.234 256.041,302.567 257.5,302.5C 257.67,303.822 257.337,304.989 256.5,306C 258.488,306.18 260.488,306.014 262.5,305.5C 262.5,304.167 262.5,302.833 262.5,301.5C 263.5,301.5 264.5,301.5 265.5,301.5C 265.38,298.52 264.713,295.687 263.5,293C 260.406,292.749 257.406,293.249 254.5,294.5C 256.729,292.013 259.562,290.346 263,289.5C 265.957,291.698 267.124,294.698 266.5,298.5C 266.333,300.5 266.167,302.5 266,304.5C 263.261,306.701 260.261,308.368 257,309.5C 255.092,309.285 253.926,308.285 253.5,306.5 Z"/></g>
<g><path style="opacity:1" fill="#c79434" d="M 330.5,276.5 C 328.517,276.157 327.183,276.824 326.5,278.5C 325.604,277.494 324.938,277.494 324.5,278.5C 323.637,277.537 322.97,277.537 322.5,278.5C 323.445,281.292 323.445,283.792 322.5,286C 319.134,287.04 316.467,289.04 314.5,292C 315.167,292.333 315.833,292.667 316.5,293C 313.124,294.05 310.124,295.55 307.5,297.5C 305.037,302.039 303.704,307.039 303.5,312.5C 301.361,302.772 304.695,295.439 313.5,290.5C 318.059,286.588 320.393,281.588 320.5,275.5C 322.696,275.41 324.863,275.077 327,274.5C 328.699,274.387 329.866,275.053 330.5,276.5 Z"/></g>
<g><path style="opacity:1" fill="#c78503" d="M 253.5,301.5 C 253.448,299.097 253.781,296.764 254.5,294.5C 257.406,293.249 260.406,292.749 263.5,293C 264.713,295.687 265.38,298.52 265.5,301.5C 264.5,301.5 263.5,301.5 262.5,301.5C 262.5,302.833 262.5,304.167 262.5,305.5C 260.488,306.014 258.488,306.18 256.5,306C 257.337,304.989 257.67,303.822 257.5,302.5C 256.041,302.567 254.708,302.234 253.5,301.5 Z"/></g>
<g><path style="opacity:1" fill="#c6870c" d="M 329.5,291.5 C 332.574,291.873 335.574,292.539 338.5,293.5C 339.851,295.392 340.518,297.558 340.5,300C 339.664,302.49 338.998,304.99 338.5,307.5C 336.097,307.552 333.764,307.219 331.5,306.5C 329.248,306.084 327.748,304.751 327,302.5C 326.333,299.833 326.333,297.167 327,294.5C 327.377,293.058 328.21,292.058 329.5,291.5 Z"/></g>
<g><path style="opacity:1" fill="#c68711" d="M 275.5,284.5 C 279.42,289.351 283.753,294.017 288.5,298.5C 288.565,301.428 289.232,304.095 290.5,306.5C 290.5,308.5 290.5,310.5 290.5,312.5C 288.549,314.792 286.216,315.125 283.5,313.5C 275.925,309.908 271.259,303.908 269.5,295.5C 268.908,289.895 269.741,284.561 272,279.5C 272.22,281.973 273.386,283.64 275.5,284.5 Z"/></g>
<g><path style="opacity:0.435" fill="#d1b26c" d="M 254.5,294.5 C 253.781,296.764 253.448,299.097 253.5,301.5C 253.5,303.167 253.5,304.833 253.5,306.5C 250.573,302.216 250.906,298.216 254.5,294.5 Z"/></g>
<g><path style="opacity:0.388" fill="#d3b36f" d="M 288.5,298.5 C 290.04,300.838 290.706,303.505 290.5,306.5C 289.232,304.095 288.565,301.428 288.5,298.5 Z"/></g>
<g><path style="opacity:1" fill="#c7860c" d="M 324.5,278.5 C 326.144,288.129 324.644,297.129 320,305.5C 318.693,307.192 317.193,308.525 315.5,309.5C 312.233,310.113 309.233,311.446 306.5,313.5C 305.416,313.315 304.416,312.982 303.5,312.5C 303.704,307.039 305.037,302.039 307.5,297.5C 310.124,295.55 313.124,294.05 316.5,293C 315.833,292.667 315.167,292.333 314.5,292C 316.467,289.04 319.134,287.04 322.5,286C 323.445,283.792 323.445,281.292 322.5,278.5C 322.97,277.537 323.637,277.537 324.5,278.5 Z"/></g>
<g><path style="opacity:0.988" fill="#c39c44" d="M 338.5,293.5 C 340.988,295.056 341.988,297.389 341.5,300.5C 341.614,303.378 340.948,306.044 339.5,308.5C 336.248,309.985 333.581,309.318 331.5,306.5C 333.764,307.219 336.097,307.552 338.5,307.5C 338.998,304.99 339.664,302.49 340.5,300C 340.518,297.558 339.851,295.392 338.5,293.5 Z"/></g>
<g><path style="opacity:1" fill="#c59638" d="M 315.5,309.5 C 313.361,312.74 310.361,314.74 306.5,315.5C 305.391,315.443 304.391,315.11 303.5,314.5C 303.5,313.833 303.5,313.167 303.5,312.5C 304.416,312.982 305.416,313.315 306.5,313.5C 309.233,311.446 312.233,310.113 315.5,309.5 Z"/></g>
<g><path style="opacity:0.357" fill="#d4ae72" d="M 290.5,312.5 C 290.853,314.635 290.02,315.968 288,316.5C 286.019,316.101 284.519,315.101 283.5,313.5C 286.216,315.125 288.549,314.792 290.5,312.5 Z"/></g>
<g><path style="opacity:0.035" fill="#f3e0a2" d="M 303.5,314.5 C 304.391,315.11 305.391,315.443 306.5,315.5C 305.053,316.885 304.053,316.552 303.5,314.5 Z"/></g>
</svg>
