<?xml version="1.0" encoding="UTF-8"?>
<!DOCTYPE svg PUBLIC "-//W3C//DTD SVG 1.1//EN" "http://www.w3.org/Graphics/SVG/1.1/DTD/svg11.dtd">
<svg xmlns="http://www.w3.org/2000/svg" version="1.1" width="842px" height="595px" style="shape-rendering:geometricPrecision; text-rendering:geometricPrecision; image-rendering:optimizeQuality; fill-rule:evenodd; clip-rule:evenodd" xmlns:xlink="http://www.w3.org/1999/xlink">
<g><path style="opacity:0.85" fill="#c78600" d="M 420.5,97.5 C 424.143,98.3822 425.31,100.716 424,104.5C 422.183,109.326 419.183,113.326 415,116.5C 413.725,118.717 412.725,121.051 412,123.5C 408.157,122.977 404.157,121.977 400,120.5C 393.028,122.599 387.528,120.599 383.5,114.5C 384.09,113.201 385.09,112.368 386.5,112C 396.47,109.879 404.304,113.046 410,121.5C 408.351,111.14 411.851,103.14 420.5,97.5 Z"/></g>
<g><path style="opacity:0.85" fill="#c78600" d="M 432.5,97.5 C 438.97,98.4654 443.136,102.132 445,108.5C 446.408,112.827 446.741,117.16 446,121.5C 451.696,113.046 459.53,109.879 469.5,112C 470.91,112.368 471.91,113.201 472.5,114.5C 468.472,120.599 462.972,122.599 456,120.5C 452.461,121.594 448.961,122.428 445.5,123C 442.417,117.912 438.583,113.412 434,109.5C 431.601,105.688 431.101,101.688 432.5,97.5 Z"/></g>
<g><path style="opacity:0.827" fill="#c78600" d="M 401.5,101.5 C 408.692,102.719 410.692,106.552 407.5,113C 399.669,112.513 397.669,108.679 401.5,101.5 Z"/></g>
<g><path style="opacity:0.826" fill="#c78600" d="M 451.5,101.5 C 454.85,101.651 456.516,103.485 456.5,107C 455.776,112.272 452.943,114.105 448,112.5C 445.726,107.72 446.892,104.053 451.5,101.5 Z"/></g>
<g><path style="opacity:0.939" fill="#c78600" d="M 427.5,109.5 C 434.665,115.49 438.999,123.157 440.5,132.5C 439.583,140.58 435.416,146.247 428,149.5C 416.896,143.941 413.562,135.275 418,123.5C 420.606,118.405 423.772,113.738 427.5,109.5 Z"/></g>
<g><path style="opacity:0.839" fill="#c78600" d="M 376.5,120.5 C 380.09,121.588 382.59,123.921 384,127.5C 384.333,132.167 384.667,136.833 385,141.5C 387.152,144.033 387.652,146.7 386.5,149.5C 384.436,149.687 382.436,150.187 380.5,151C 377.465,154.37 374.132,157.37 370.5,160C 367.183,160.498 363.85,160.665 360.5,160.5C 361.554,155.562 364.221,151.729 368.5,149C 373.35,147.268 378.35,146.268 383.5,146C 374.933,139.142 372.6,130.642 376.5,120.5 Z"/></g>
<g><path style="opacity:0.839" fill="#c78600" d="M 477.5,120.5 C 479.776,120.756 480.943,122.09 481,124.5C 482.499,133.341 479.666,140.507 472.5,146C 480.401,145.841 487.234,148.341 493,153.5C 494.411,155.65 495.245,157.984 495.5,160.5C 492.15,160.665 488.817,160.498 485.5,160C 481.843,157.342 478.509,154.342 475.5,151C 473.564,150.187 471.564,149.687 469.5,149.5C 468.348,146.7 468.848,144.033 471,141.5C 471.333,137.167 471.667,132.833 472,128.5C 473.104,125.279 474.937,122.612 477.5,120.5 Z"/></g>
<g><path style="opacity:0.907" fill="#c78600" d="M 388.5,125.5 C 408.542,128.875 420.208,140.542 423.5,160.5C 403.51,157.176 391.843,145.51 388.5,125.5 Z"/></g>
<g><path style="opacity:0.906" fill="#c78600" d="M 464.5,125.5 C 465.675,125.281 466.675,125.614 467.5,126.5C 463.696,145.971 452.029,157.305 432.5,160.5C 435.535,141.8 446.202,130.134 464.5,125.5 Z"/></g>
<g><path style="opacity:0.812" fill="#c78600" d="M 366.5,136.5 C 372.518,135.191 376.185,137.524 377.5,143.5C 374.451,145.466 371.118,145.966 367.5,145C 364.579,142.201 364.245,139.368 366.5,136.5 Z"/></g>
<g><path style="opacity:0.833" fill="#c78600" d="M 482.5,136.5 C 491.279,135.169 493.279,138.002 488.5,145C 479.162,147.073 477.162,144.24 482.5,136.5 Z"/></g>
<g><path style="opacity:0.929" fill="#c78600" d="M 392.5,152.5 C 401.024,152.011 407.524,155.345 412,162.5C 411.285,168.912 407.785,173.412 401.5,176C 396.411,176.826 391.411,176.492 386.5,175C 381.9,172.785 377.734,169.952 374,166.5C 373.37,164.097 374.203,162.263 376.5,161C 381.493,157.339 386.827,154.506 392.5,152.5 Z"/></g>
<g><path style="opacity:0.93" fill="#c78600" d="M 457.5,152.5 C 467.07,153.035 475.236,156.701 482,163.5C 482.667,164.5 482.667,165.5 482,166.5C 477.385,170.558 472.219,173.725 466.5,176C 457.57,178.447 450.403,175.947 445,168.5C 442.922,163.837 444.088,160.003 448.5,157C 451.324,154.921 454.324,153.421 457.5,152.5 Z"/></g>
<g><path style="opacity:0.847" fill="#c78600" d="M 361.5,168.5 C 364.941,168.301 368.274,168.801 371.5,170C 375.199,174.876 379.866,178.376 385.5,180.5C 386.415,181.328 387.081,182.328 387.5,183.5C 386.194,184.912 385.36,186.579 385,188.5C 384.841,193.916 384.174,199.25 383,204.5C 381.292,206.543 379.292,208.21 377,209.5C 373.483,202.664 373.816,195.997 378,189.5C 380.167,187.333 382.333,185.167 384.5,183C 373.481,184.68 365.481,180.68 360.5,171C 360.743,170.098 361.077,169.265 361.5,168.5 Z"/></g>
<g><path style="opacity:0.845" fill="#c78600" d="M 487.5,168.5 C 489.857,168.337 492.19,168.503 494.5,169C 495.022,169.561 495.355,170.228 495.5,171C 490.519,180.68 482.519,184.68 471.5,183C 481.352,189.876 483.852,198.71 479,209.5C 476.708,208.21 474.708,206.543 473,204.5C 471.826,199.25 471.159,193.916 471,188.5C 470.64,186.579 469.806,184.912 468.5,183.5C 470.282,180.499 472.949,178.666 476.5,178C 479.792,174.194 483.459,171.027 487.5,168.5 Z"/></g>
<g><path style="opacity:0.91" fill="#c78600" d="M 419.5,169.5 C 420.833,169.5 422.167,169.5 423.5,169.5C 420.354,189.817 408.687,200.984 388.5,203C 392.164,185.508 402.497,174.341 419.5,169.5 Z"/></g>
<g><path style="opacity:0.908" fill="#c78600" d="M 432.5,169.5 C 451.795,172.627 463.461,183.793 467.5,203C 447.313,200.984 435.646,189.817 432.5,169.5 Z"/></g>
<g><path style="opacity:0.927" fill="#c78600" d="M 427.5,179.5 C 440.612,186.859 443.446,197.192 436,210.5C 433.634,213.86 430.967,216.86 428,219.5C 417.669,211.506 414.336,201.172 418,188.5C 420.406,184.592 423.572,181.592 427.5,179.5 Z"/></g>
<g><path style="opacity:0.805" fill="#c78600" d="M 369.5,183.5 C 376.758,183.243 378.592,185.91 375,191.5C 370.88,194.472 367.38,193.972 364.5,190C 365.283,187.062 366.95,184.896 369.5,183.5 Z"/></g>
<g><path style="opacity:0.816" fill="#c78600" d="M 482.5,183.5 C 488.177,183.347 491.011,186.014 491,191.5C 485.405,194.955 481.572,193.622 479.5,187.5C 479.787,185.557 480.787,184.223 482.5,183.5 Z"/></g>
<g><path style="opacity:0.923" fill="#3d094c" d="M 217.5,196.5 C 240.95,196.949 253.284,208.949 254.5,232.5C 253.303,255.07 243.636,272.903 225.5,286C 218.861,289.371 215.694,287.537 216,280.5C 226.188,272.983 234.188,263.65 240,252.5C 244.244,242.635 244.577,232.635 241,222.5C 234.571,210.417 224.738,206.584 211.5,211C 203.606,214.561 198.106,220.395 195,228.5C 193.039,233.677 191.706,239.01 191,244.5C 189.774,263.803 189.107,283.137 189,302.5C 188.04,311.801 185.874,320.801 182.5,329.5C 208.268,342.867 235.602,351.867 264.5,356.5C 265.289,360.102 263.955,362.935 260.5,365C 247.003,364.504 233.837,362.004 221,357.5C 206.011,352.949 191.344,347.616 177,341.5C 160.122,360.905 138.955,368.405 113.5,364C 94.3856,358.605 88.5523,346.772 96,328.5C 106.728,318.012 119.562,314.178 134.5,317C 146.289,318.655 157.789,321.489 169,325.5C 169.5,325.167 170,324.833 170.5,324.5C 173.51,316.78 175.343,308.78 176,300.5C 177.18,280.856 177.847,261.19 178,241.5C 180.448,216.896 193.615,201.896 217.5,196.5 Z M 116.5,328.5 C 132.979,327.024 148.645,329.857 163.5,337C 148.002,353.729 129.668,358.062 108.5,350C 102.353,344.624 102.02,338.958 107.5,333C 110.437,331.199 113.437,329.699 116.5,328.5 Z"/></g>
<g><path style="opacity:0.85" fill="#c78600" d="M 408.5,205.5 C 410.09,205.628 411.423,206.295 412.5,207.5C 414.624,213.134 418.124,217.801 423,221.5C 423.579,223.649 424.079,225.815 424.5,228C 424.507,229.812 423.84,231.312 422.5,232.5C 412.237,227.641 408.071,219.641 410,208.5C 403.227,217.649 394.56,220.315 384,216.5C 384.948,213.199 387.115,210.699 390.5,209C 395.167,208.667 399.833,208.333 404.5,208C 406.066,207.392 407.4,206.558 408.5,205.5 Z"/></g>
<g><path style="opacity:0.848" fill="#c78600" d="M 445.5,205.5 C 451.854,208.033 458.521,209.199 465.5,209C 468.638,210.305 470.971,212.471 472.5,215.5C 461.551,220.69 452.717,218.023 446,207.5C 448.219,219.062 444.052,227.395 433.5,232.5C 431.079,229.358 430.912,226.025 433,222.5C 435.295,219.203 437.962,216.203 441,213.5C 442.233,210.578 443.733,207.911 445.5,205.5 Z"/></g>
<g><path style="opacity:0.808" fill="#c78600" d="M 405.5,215.5 C 411.418,221.125 410.418,225.458 402.5,228.5C 397.837,222.801 398.837,218.467 405.5,215.5 Z"/></g>
<g><path style="opacity:0.816" fill="#c78600" d="M 448.5,215.5 C 456.962,217.33 458.629,221.663 453.5,228.5C 446.909,226.062 445.243,221.728 448.5,215.5 Z"/></g>
<g><path style="opacity:0.917" fill="#3d094c" d="M 324.5,230.5 C 330.468,230.966 334.135,234.133 335.5,240C 324.355,271.58 316.355,303.913 311.5,337C 318.814,337.826 325.481,340.326 331.5,344.5C 333.167,343.667 334.833,342.833 336.5,342C 336.505,334.273 336.672,326.439 337,318.5C 338.843,309.647 342.677,301.814 348.5,295C 355.411,290.009 361.911,290.509 368,296.5C 369.441,299.155 370.274,301.988 370.5,305C 367.898,318.535 362.565,330.868 354.5,342C 360.425,344.306 366.091,343.64 371.5,340C 384.665,329.165 392.165,315.332 394,298.5C 402.459,276.687 417.959,268.854 440.5,275C 449.526,278.692 455.859,285.026 459.5,294C 457.167,294.667 454.833,294.667 452.5,294C 441.232,278.015 427.232,275.015 410.5,285C 397.173,298.886 395.006,314.386 404,331.5C 414.65,345.963 427.816,348.797 443.5,340C 447.358,337.642 450.358,334.475 452.5,330.5C 454.833,329.167 457.167,329.167 459.5,330.5C 451.585,345.96 438.918,352.794 421.5,351C 409.02,347.857 400.186,340.357 395,328.5C 389.988,339.18 382.488,347.68 372.5,354C 362.328,358.018 352.828,356.852 344,350.5C 342.421,352.041 340.587,353.208 338.5,354C 347.04,369.765 350.207,386.599 348,404.5C 347.091,418.81 343.091,432.143 336,444.5C 325.047,457.423 313.714,457.756 302,445.5C 294.518,433.273 291.018,419.94 291.5,405.5C 293.228,385.124 295.061,364.79 297,344.5C 293.419,348.752 289.252,352.252 284.5,355C 269.616,359.45 259.783,354.283 255,339.5C 253.576,330.096 254.243,320.763 257,311.5C 259.918,308.388 263.418,307.721 267.5,309.5C 268.696,310.559 269.363,311.893 269.5,313.5C 267.672,321.416 267.172,329.416 268,337.5C 270.616,344.571 275.449,346.404 282.5,343C 290.841,336.323 297.341,328.156 302,318.5C 306.549,290.418 312.883,262.752 321,235.5C 321.697,233.416 322.864,231.749 324.5,230.5 Z M 357.5,303.5 C 357.832,312.667 354.999,321 349,328.5C 348.943,319.171 351.776,310.838 357.5,303.5 Z M 309.5,351.5 C 314.9,353.909 320.566,355.409 326.5,356C 333.113,363.162 336.613,371.662 337,381.5C 337.59,395.676 336.257,409.676 333,423.5C 331.771,428.529 329.771,433.196 327,437.5C 321.917,443.617 316.584,443.951 311,438.5C 306.539,428.863 304.372,418.696 304.5,408C 305.656,389.116 307.323,370.282 309.5,351.5 Z"/></g>
<g><path style="opacity:0.843" fill="#3d094c" d="M 515.5,272.5 C 518.238,271.965 520.072,272.965 521,275.5C 532.127,300.75 542.961,326.083 553.5,351.5C 551.167,351.5 548.833,351.5 546.5,351.5C 537.542,328.795 527.708,306.462 517,284.5C 507.333,306.5 497.667,328.5 488,350.5C 485.959,351.423 483.792,351.756 481.5,351.5C 492.053,324.845 503.386,298.512 515.5,272.5 Z"/></g>
<g><path style="opacity:0.863" fill="#3d094c" d="M 585.5,272.5 C 598.504,272.333 611.504,272.5 624.5,273C 639.746,277.322 645.246,287.155 641,302.5C 637.632,308.203 632.799,312.037 626.5,314C 635.34,325.005 641.007,337.505 643.5,351.5C 641.208,351.756 639.041,351.423 637,350.5C 634.727,343.014 632.06,335.68 629,328.5C 626.552,324.385 623.719,320.552 620.5,317C 610.271,315.549 599.938,315.049 589.5,315.5C 589.5,327.5 589.5,339.5 589.5,351.5C 587.5,351.5 585.5,351.5 583.5,351.5C 583.333,325.831 583.5,300.165 584,274.5C 584.717,273.956 585.217,273.289 585.5,272.5 Z M 589.5,278.5 C 601.562,278.085 613.562,278.585 625.5,280C 635.507,284.494 638.34,291.66 634,301.5C 631.407,304.543 628.24,306.71 624.5,308C 612.838,308.5 601.171,308.667 589.5,308.5C 589.5,298.5 589.5,288.5 589.5,278.5 Z"/></g>
<g><path style="opacity:0.883" fill="#3d094c" d="M 679.5,272.5 C 698.167,272.5 716.833,272.5 735.5,272.5C 735.5,274.5 735.5,276.5 735.5,278.5C 718.5,278.5 701.5,278.5 684.5,278.5C 684.5,288.5 684.5,298.5 684.5,308.5C 696.833,308.5 709.167,308.5 721.5,308.5C 721.5,310.833 721.5,313.167 721.5,315.5C 709.167,315.5 696.833,315.5 684.5,315.5C 684.5,325.5 684.5,335.5 684.5,345.5C 701.5,345.5 718.5,345.5 735.5,345.5C 735.5,347.5 735.5,349.5 735.5,351.5C 716.59,351.826 697.757,351.493 679,350.5C 678.177,324.428 678.343,298.428 679.5,272.5 Z"/></g>
<g><path style="opacity:0.889" fill="#3d094c" d="M 262.5,284.5 C 268.437,285.112 271.103,288.445 270.5,294.5C 270.631,300.203 267.798,303.203 262,303.5C 256.797,302.794 254.297,299.794 254.5,294.5C 254.845,289.072 257.512,285.739 262.5,284.5 Z"/></g>
<g><path style="opacity:0.688" fill="#c78600" d="M 447.5,384.5 C 449.288,384.215 450.955,384.548 452.5,385.5C 450.957,388.39 448.624,390.057 445.5,390.5C 445.604,388.297 446.27,386.297 447.5,384.5 Z"/></g>
<g><path style="opacity:0.644" fill="#c78600" d="M 673.5,385.5 C 675.167,385.5 676.833,385.5 678.5,385.5C 678.005,390.019 675.671,391.685 671.5,390.5C 672.456,388.925 673.123,387.258 673.5,385.5 Z"/></g>
<g><path style="opacity:0.729" fill="#c78600" d="M 405.5,392.5 C 408.978,392.184 412.312,392.684 415.5,394C 417.607,395.264 418.607,397.097 418.5,399.5C 415.332,398.697 412.332,397.364 409.5,395.5C 403.977,397.299 402.143,400.965 404,406.5C 405.413,408.414 407.247,409.747 409.5,410.5C 412.332,408.636 415.332,407.303 418.5,406.5C 418.201,409.642 416.534,411.809 413.5,413C 403.052,414.552 398.552,410.052 400,399.5C 400.967,396.379 402.8,394.046 405.5,392.5 Z"/></g>
<g><path style="opacity:0.795" fill="#c78600" d="M 424.5,392.5 C 425.822,392.33 426.989,392.663 428,393.5C 428.499,399.157 428.666,404.824 428.5,410.5C 431.833,410.5 435.167,410.5 438.5,410.5C 438.5,411.5 438.5,412.5 438.5,413.5C 433.833,413.5 429.167,413.5 424.5,413.5C 424.5,406.5 424.5,399.5 424.5,392.5 Z"/></g>
<g><path style="opacity:0.679" fill="#c78600" d="M 444.5,392.5 C 445.833,392.5 447.167,392.5 448.5,392.5C 448.5,399.5 448.5,406.5 448.5,413.5C 447.167,413.5 445.833,413.5 444.5,413.5C 444.5,406.5 444.5,399.5 444.5,392.5 Z"/></g>
<g><path style="opacity:0.773" fill="#c78600" d="M 456.5,392.5 C 458.903,392.393 460.736,393.393 462,395.5C 464.333,398.833 466.667,402.167 469,405.5C 469.499,401.179 469.666,396.846 469.5,392.5C 470.833,392.5 472.167,392.5 473.5,392.5C 473.5,399.5 473.5,406.5 473.5,413.5C 471.856,413.714 470.356,413.38 469,412.5C 466,408.167 463,403.833 460,399.5C 459.501,404.155 459.334,408.821 459.5,413.5C 458.5,413.5 457.5,413.5 456.5,413.5C 456.5,406.5 456.5,399.5 456.5,392.5 Z"/></g>
<g><path style="opacity:0.734" fill="#c78600" d="M 481.5,392.5 C 482.833,392.5 484.167,392.5 485.5,392.5C 485.5,399.5 485.5,406.5 485.5,413.5C 484.167,413.5 482.833,413.5 481.5,413.5C 481.5,406.5 481.5,399.5 481.5,392.5 Z"/></g>
<g><path style="opacity:0.726" fill="#c78600" d="M 497.5,392.5 C 500.978,392.184 504.312,392.684 507.5,394C 509.607,395.264 510.607,397.097 510.5,399.5C 509.127,399.657 507.793,399.49 506.5,399C 500.879,394.297 497.212,395.631 495.5,403C 495.781,406.79 497.781,409.29 501.5,410.5C 504.332,408.636 507.332,407.303 510.5,406.5C 510.201,409.642 508.534,411.809 505.5,413C 495.052,414.552 490.552,410.052 492,399.5C 492.967,396.379 494.8,394.046 497.5,392.5 Z"/></g>
<g><path style="opacity:0.758" fill="#c78600" d="M 522.5,392.5 C 523.822,392.33 524.989,392.663 526,393.5C 529.203,399.948 531.703,406.615 533.5,413.5C 532.178,413.67 531.011,413.337 530,412.5C 528,407.833 526,403.167 524,398.5C 522,403.167 520,407.833 518,412.5C 516.989,413.337 515.822,413.67 514.5,413.5C 516.374,406.212 519.041,399.212 522.5,392.5 Z"/></g>
<g><path style="opacity:0.764" fill="#c78600" d="M 556.5,392.5 C 570.777,389.941 576.277,395.607 573,409.5C 571.833,410.667 570.667,411.833 569.5,413C 565.179,413.499 560.846,413.666 556.5,413.5C 556.5,406.5 556.5,399.5 556.5,392.5 Z M 560.5,395.5 C 570.175,395.672 572.842,400.172 568.5,409C 565.986,410.252 563.32,410.752 560.5,410.5C 560.5,405.5 560.5,400.5 560.5,395.5 Z"/></g>
<g><path style="opacity:0.914" fill="#c78600" d="M 581.5,392.5 C 586.833,392.5 592.167,392.5 597.5,392.5C 597.5,393.5 597.5,394.5 597.5,395.5C 593.167,395.5 588.833,395.5 584.5,395.5C 584.5,397.5 584.5,399.5 584.5,401.5C 587.5,401.5 590.5,401.5 593.5,401.5C 593.5,402.5 593.5,403.5 593.5,404.5C 590.5,404.5 587.5,404.5 584.5,404.5C 584.5,406.5 584.5,408.5 584.5,410.5C 588.833,410.5 593.167,410.5 597.5,410.5C 597.5,411.5 597.5,412.5 597.5,413.5C 592.167,413.5 586.833,413.5 581.5,413.5C 581.5,406.5 581.5,399.5 581.5,392.5 Z"/></g>
<g><path style="opacity:0.738" fill="#c78600" d="M 623.5,392.5 C 631.064,390.37 635.064,393.037 635.5,400.5C 633.018,398.967 630.518,397.301 628,395.5C 626.379,395.725 625.212,396.558 624.5,398C 628.416,400.314 632.249,402.814 636,405.5C 636.855,408.956 635.689,411.456 632.5,413C 626.318,415.039 621.985,413.205 619.5,407.5C 620.32,405.889 621.654,405.222 623.5,405.5C 623.379,408.541 624.879,410.208 628,410.5C 629.951,410.112 631.451,409.112 632.5,407.5C 628.374,405.627 624.541,403.294 621,400.5C 620.018,397.225 620.851,394.559 623.5,392.5 Z"/></g>
<g><path style="opacity:0.757" fill="#c78600" d="M 648.5,392.5 C 649.822,392.33 650.989,392.663 652,393.5C 655.364,399.885 657.864,406.552 659.5,413.5C 658.178,413.67 657.011,413.337 656,412.5C 654,407.833 652,403.167 650,398.5C 648,403.167 646,407.833 644,412.5C 642.989,413.337 641.822,413.67 640.5,413.5C 642.374,406.212 645.041,399.212 648.5,392.5 Z"/></g>
<g><path style="opacity:0.782" fill="#c78600" d="M 665.5,392.5 C 666.5,392.5 667.5,392.5 668.5,392.5C 668.334,397.511 668.501,402.511 669,407.5C 671.282,411.041 673.949,411.374 677,408.5C 677.499,403.177 677.666,397.844 677.5,392.5C 678.833,392.5 680.167,392.5 681.5,392.5C 681.666,397.844 681.499,403.177 681,408.5C 678.565,413.224 674.731,414.724 669.5,413C 668.069,412.535 666.903,411.701 666,410.5C 665.501,404.509 665.334,398.509 665.5,392.5 Z"/></g>
<g><path style="opacity:0.757" fill="#c78600" d="M 688.5,392.5 C 702.777,389.941 708.277,395.607 705,409.5C 703.833,410.667 702.667,411.833 701.5,413C 697.179,413.499 692.846,413.666 688.5,413.5C 688.5,406.5 688.5,399.5 688.5,392.5 Z M 692.5,395.5 C 702.005,395.851 704.672,400.351 700.5,409C 697.986,410.252 695.32,410.752 692.5,410.5C 692.5,405.5 692.5,400.5 692.5,395.5 Z"/></g>
<g><path style="opacity:0.908" fill="#c78600" d="M 713.5,392.5 C 718.833,392.5 724.167,392.5 729.5,392.5C 729.5,393.5 729.5,394.5 729.5,395.5C 725.167,395.5 720.833,395.5 716.5,395.5C 716.5,397.5 716.5,399.5 716.5,401.5C 719.5,401.5 722.5,401.5 725.5,401.5C 725.5,402.5 725.5,403.5 725.5,404.5C 722.5,404.5 719.5,404.5 716.5,404.5C 716.5,406.5 716.5,408.5 716.5,410.5C 720.833,410.5 725.167,410.5 729.5,410.5C 729.5,411.5 729.5,412.5 729.5,413.5C 724.167,413.5 718.833,413.5 713.5,413.5C 713.5,406.5 713.5,399.5 713.5,392.5 Z"/></g>
<g><path style="opacity:0.858" fill="#c78600" d="M 753.5,392.5 C 758.833,392.5 764.167,392.5 769.5,392.5C 769.5,393.5 769.5,394.5 769.5,395.5C 765.5,395.5 761.5,395.5 757.5,395.5C 757.5,397.5 757.5,399.5 757.5,401.5C 760.5,401.5 763.5,401.5 766.5,401.5C 766.5,402.5 766.5,403.5 766.5,404.5C 763.5,404.5 760.5,404.5 757.5,404.5C 757.5,406.5 757.5,408.5 757.5,410.5C 761.5,410.5 765.5,410.5 769.5,410.5C 769.5,411.5 769.5,412.5 769.5,413.5C 764.167,413.5 758.833,413.5 753.5,413.5C 753.5,406.5 753.5,399.5 753.5,392.5 Z"/></g>
<g><path style="opacity:0.662" fill="#c78600" d="M 478.5,416.5 C 480.288,416.215 481.955,416.548 483.5,417.5C 482.527,421.148 480.193,422.814 476.5,422.5C 476.704,420.315 477.37,418.315 478.5,416.5 Z"/></g>
<g><path style="opacity:0.885" fill="#c78600" d="M 401.5,425.5 C 406.833,425.5 412.167,425.5 417.5,425.5C 417.5,426.5 417.5,427.5 417.5,428.5C 413.167,428.5 408.833,428.5 404.5,428.5C 404.5,430.5 404.5,432.5 404.5,434.5C 407.833,434.5 411.167,434.5 414.5,434.5C 414.5,435.5 414.5,436.5 414.5,437.5C 411.167,437.5 407.833,437.5 404.5,437.5C 404.5,439.5 404.5,441.5 404.5,443.5C 408.833,443.5 413.167,443.5 417.5,443.5C 417.5,444.5 417.5,445.5 417.5,446.5C 412.167,446.5 406.833,446.5 401.5,446.5C 401.5,439.5 401.5,432.5 401.5,425.5 Z"/></g>
<g><path style="opacity:0.733" fill="#c78600" d="M 426.5,425.5 C 434.064,423.37 438.064,426.037 438.5,433.5C 437.448,433.649 436.448,433.483 435.5,433C 434.29,429.245 431.956,428.079 428.5,429.5C 427.417,430.365 427.251,431.365 428,432.5C 430.761,433.796 433.595,434.963 436.5,436C 440.372,439.641 440.038,442.974 435.5,446C 431.705,446.837 428.039,446.504 424.5,445C 422.067,442.652 422.067,440.485 424.5,438.5C 425.915,441.075 428.082,442.742 431,443.5C 432.726,443.054 434.226,442.221 435.5,441C 431.78,438.721 427.946,436.554 424,434.5C 422.927,430.9 423.76,427.9 426.5,425.5 Z"/></g>
<g><path style="opacity:0.901" fill="#c78600" d="M 443.5,425.5 C 449.167,425.5 454.833,425.5 460.5,425.5C 460.5,426.5 460.5,427.5 460.5,428.5C 458.167,428.5 455.833,428.5 453.5,428.5C 453.5,434.5 453.5,440.5 453.5,446.5C 452.5,446.5 451.5,446.5 450.5,446.5C 450.5,440.5 450.5,434.5 450.5,428.5C 448.167,428.5 445.833,428.5 443.5,428.5C 443.5,427.5 443.5,426.5 443.5,425.5 Z"/></g>
<g><path style="opacity:0.885" fill="#c78600" d="M 466.5,425.5 C 471.833,425.5 477.167,425.5 482.5,425.5C 482.5,426.5 482.5,427.5 482.5,428.5C 478.167,428.5 473.833,428.5 469.5,428.5C 469.5,430.5 469.5,432.5 469.5,434.5C 472.833,434.5 476.167,434.5 479.5,434.5C 479.5,435.5 479.5,436.5 479.5,437.5C 476.167,437.5 472.833,437.5 469.5,437.5C 469.5,439.5 469.5,441.5 469.5,443.5C 473.833,443.5 478.167,443.5 482.5,443.5C 482.5,444.5 482.5,445.5 482.5,446.5C 477.167,446.5 471.833,446.5 466.5,446.5C 466.5,439.5 466.5,432.5 466.5,425.5 Z"/></g>
<g><path style="opacity:0.902" fill="#c78600" d="M 487.5,425.5 C 493.167,425.5 498.833,425.5 504.5,425.5C 504.5,426.5 504.5,427.5 504.5,428.5C 502.167,428.5 499.833,428.5 497.5,428.5C 497.5,434.5 497.5,440.5 497.5,446.5C 496.5,446.5 495.5,446.5 494.5,446.5C 494.5,440.5 494.5,434.5 494.5,428.5C 492.167,428.5 489.833,428.5 487.5,428.5C 487.5,427.5 487.5,426.5 487.5,425.5 Z"/></g>
<g><path style="opacity:0.679" fill="#c78600" d="M 510.5,425.5 C 511.833,425.5 513.167,425.5 514.5,425.5C 514.5,432.5 514.5,439.5 514.5,446.5C 513.167,446.5 511.833,446.5 510.5,446.5C 510.5,439.5 510.5,432.5 510.5,425.5 Z"/></g>
<g><path style="opacity:0.738" fill="#c78600" d="M 526.5,425.5 C 529.978,425.184 533.312,425.684 536.5,427C 538.607,428.264 539.607,430.097 539.5,432.5C 536.523,431.347 533.523,430.014 530.5,428.5C 524.782,430.934 523.282,434.934 526,440.5C 527.351,442.01 529.018,443.01 531,443.5C 533.688,441.7 536.521,440.367 539.5,439.5C 537.681,446.147 533.348,448.314 526.5,446C 520.223,441.283 519.056,435.45 523,428.5C 524.145,427.364 525.312,426.364 526.5,425.5 Z"/></g>
<g><path style="opacity:0.752" fill="#c78600" d="M 551.5,425.5 C 552.822,425.33 553.989,425.663 555,426.5C 557.833,432.833 560.667,439.167 563.5,445.5C 561.994,446.747 560.494,446.747 559,445.5C 557.257,441.016 555.257,436.683 553,432.5C 550.806,436.749 548.806,441.082 547,445.5C 545.989,446.337 544.822,446.67 543.5,446.5C 545.771,439.356 548.437,432.356 551.5,425.5 Z"/></g>
<g><path style="opacity:0.744" fill="#c78600" d="M 591.5,425.5 C 592.978,425.238 594.311,425.571 595.5,426.5C 598.74,432.973 601.406,439.64 603.5,446.5C 602.167,446.5 600.833,446.5 599.5,446.5C 597.963,441.753 596.13,437.087 594,432.5C 591.552,436.667 589.385,441 587.5,445.5C 586.167,446.833 584.833,446.833 583.5,445.5C 586.372,438.877 589.039,432.211 591.5,425.5 Z"/></g>
<g><path style="opacity:0.75" fill="#c78600" d="M 606.5,425.5 C 607.978,425.238 609.311,425.571 610.5,426.5C 612.682,430.864 614.849,435.198 617,439.5C 618.806,435.082 620.806,430.749 623,426.5C 624.011,425.663 625.178,425.33 626.5,425.5C 624.579,433.109 621.413,440.109 617,446.5C 616.228,446.355 615.561,446.022 615,445.5C 611.879,438.928 609.045,432.261 606.5,425.5 Z"/></g>
<g><path style="opacity:0.762" fill="#c78600" d="M 638.5,425.5 C 639.822,425.33 640.989,425.663 642,426.5C 644.81,433.103 647.31,439.77 649.5,446.5C 648.178,446.67 647.011,446.337 646,445.5C 644,440.833 642,436.167 640,431.5C 638,436.167 636,440.833 634,445.5C 632.989,446.337 631.822,446.67 630.5,446.5C 632.32,439.191 634.987,432.191 638.5,425.5 Z"/></g>
<g><path style="opacity:0.741" fill="#c78600" d="M 655.5,425.5 C 657.903,425.393 659.736,426.393 661,428.5C 663.333,431.833 665.667,435.167 668,438.5C 668.499,434.179 668.666,429.846 668.5,425.5C 669.833,425.5 671.167,425.5 672.5,425.5C 672.5,432.5 672.5,439.5 672.5,446.5C 671.127,446.657 669.793,446.49 668.5,446C 665.789,442.078 662.955,438.244 660,434.5C 659.501,438.486 659.334,442.486 659.5,446.5C 658.167,446.5 656.833,446.5 655.5,446.5C 655.5,439.5 655.5,432.5 655.5,425.5 Z"/></g>
<g><path style="opacity:0.728" fill="#c78600" d="M 684.5,425.5 C 690.537,424.101 694.871,426.101 697.5,431.5C 696.277,432.614 694.944,432.781 693.5,432C 689.864,427.38 686.364,427.546 683,432.5C 681.266,437.774 682.933,441.441 688,443.5C 691.109,441.856 694.275,440.522 697.5,439.5C 696.226,444.499 692.893,447.165 687.5,447.5C 686.833,449.5 685.5,450.833 683.5,451.5C 682.453,450.078 682.453,448.578 683.5,447C 676.528,439.361 676.861,432.194 684.5,425.5 Z"/></g>
<g><path style="opacity:0.754" fill="#c78600" d="M 709.5,425.5 C 710.822,425.33 711.989,425.663 713,426.5C 716.203,432.948 718.703,439.615 720.5,446.5C 719.178,446.67 718.011,446.337 717,445.5C 715,440.833 713,436.167 711,431.5C 709,436.167 707,440.833 705,445.5C 703.989,446.337 702.822,446.67 701.5,446.5C 703.32,439.191 705.987,432.191 709.5,425.5 Z"/></g>
<g><path style="opacity:0.776" fill="#c78600" d="M 726.5,425.5 C 740.153,422.655 745.653,427.988 743,441.5C 742.535,442.931 741.701,444.097 740.5,445C 735.964,446.379 731.297,446.879 726.5,446.5C 726.5,439.5 726.5,432.5 726.5,425.5 Z M 730.5,428.5 C 736.247,427.866 739.58,430.366 740.5,436C 739.584,441.752 736.251,444.252 730.5,443.5C 730.5,438.5 730.5,433.5 730.5,428.5 Z"/></g>
<g><path style="opacity:0.753" fill="#c78600" d="M 756.5,425.5 C 757.822,425.33 758.989,425.663 760,426.5C 762.833,432.833 765.667,439.167 768.5,445.5C 767.167,446.833 765.833,446.833 764.5,445.5C 762.615,441 760.448,436.667 758,432.5C 755.863,437.084 754.029,441.75 752.5,446.5C 751.167,446.5 749.833,446.5 748.5,446.5C 750.882,439.4 753.549,432.4 756.5,425.5 Z"/></g>
</svg>
